<?xml version="1.0" encoding="UTF-8"?>
<svg width="20px" height="20px" viewBox="0 0 20 20" version="1.1" xmlns="http://www.w3.org/2000/svg" xmlns:xlink="http://www.w3.org/1999/xlink">
    <title>创建_bnb</title>
    <g id="社区2" stroke="none" stroke-width="1" fill="none" fill-rule="evenodd">
        <g id="公链" transform="translate(-185.000000, -72.000000)">
            <g id="创建_bnb" transform="translate(185.000000, 72.000000)">
                <rect id="矩形备份" fill="#F7BF00" x="0" y="0" width="20" height="20" rx="10"></rect>
                <g id="编组-5" transform="translate(5.000000, 4.000000)" fill="#FFFFFF">
                    <polygon id="路径-4" points="5 0 8.04347826 1.8271275 6.95652174 2.51234501 5.001603 1.2561725 3.04347826 2.51234501 2.00378553 1.8271275"></polygon>
                    <polygon id="路径-5" points="3.91304348 2.966592 5.02363189 2.26498132 6.08695652 2.966592 5.02363189 3.62851355"></polygon>
                    <polygon id="路径-6" points="8.80434783 2.26498132 7.71327871 2.94674743 8.80434783 3.62851355 8.80434783 5.02430574 10 4.3161505 10 2.94674743"></polygon>
                    <polygon id="路径-7" points="10 5.33297932 10 8.93591694 6.95652174 10.7953134 6.95652174 9.38390144 8.85663935 8.28322757 8.85663935 6"></polygon>
                    <polygon id="路径-8" points="6.95652174 7.10285891 8.04347826 6.47808522 8.04347826 7.86340109 6.95652174 8.5081925"></polygon>
                    <polygon id="路径-9" points="8.04347826 4.13274921 8.04347826 5.54355602 6.08695652 6.64599516 6.08695652 8.93854827 5.02363189 9.64794966 3.91304348 8.93854827 3.91304348 6.64599516 1.94578832 5.54355602 1.94578832 4.13274921 3.04347826 3.43357387 5.02363189 4.64700036 6.95652174 3.43357387"></polygon>
                    <polygon id="路径-10" points="3.91304348 9.9221961 5.001603 10.6044512 6.08695652 9.9221961 6.08695652 11.2691756 5.02363189 12 3.91304348 11.2691756"></polygon>
                    <polygon id="路径-11" points="3.04347826 9.40572017 3.04347826 10.7953134 0 8.98995789 0 5.33297932 1.12841749 6 1.12841749 8.28996812"></polygon>
                    <polygon id="路径-12" points="3.04347826 7.11934082 3.04347826 8.5081925 1.94578832 7.81376666 1.94578832 6.47808522"></polygon>
                    <polygon id="路径-13" points="0 4.3119989 0 2.94674743 1.05647489 2.26498132 2.27035814 2.94674743 1.13517907 3.64464353 1.13517907 5.02430574"></polygon>
                </g>
            </g>
        </g>
    </g>
</svg>