<?xml version="1.0" encoding="UTF-8"?>
<svg width="20px" height="20px" viewBox="0 0 20 20" version="1.1" xmlns="http://www.w3.org/2000/svg" xmlns:xlink="http://www.w3.org/1999/xlink">
    <title>详情_polygon</title>
    <g id="社区2" stroke="none" stroke-width="1" fill="none" fill-rule="evenodd">
        <g id="公链" transform="translate(-73.000000, -21.000000)">
            <g id="详情_polygon" transform="translate(73.000000, 21.000000)">
                <rect id="矩形备份" fill-opacity="0.1" fill="#FFFFFF" x="0" y="0" width="20" height="20" rx="10"></rect>
                <g id="编组" transform="translate(5.000000, 5.000000)" fill="#834DE3" fill-rule="nonzero" stroke="#834DE3" stroke-width="0.5">
                    <path d="M2.50128261,6.21410437 L0.194780719,4.84460317 C0.0744571819,4.77422046 0.000109651786,4.64292676 0,4.50064768 L0,1.76164527 C-0.000966724968,1.61988908 0.0738303202,1.48901523 0.194780719,1.42085017 L2.50128261,0.0513489529 C2.62076189,-0.0171163176 2.76622032,-0.0171163176 2.8856996,0.0513489529 L5.19220149,1.42085017 C5.31204898,1.49095238 5.38632195,1.62151184 5.38697276,1.76322546 L5.38697276,2.5901935 C5.38697276,2.80837272 5.21486341,2.98524193 5.00255577,2.98524193 C4.79024814,2.98524193 4.61813879,2.80837272 4.61813879,2.5901935 L4.61813879,1.98866643 L2.69605388,0.84565966 L0.773968968,1.98866643 L0.773968968,4.26941267 L2.69605388,5.41241945 L4.80778451,4.15985257 C4.92589601,4.08928396 5.07167028,4.08883027 5.19019555,4.1586624 C5.30872082,4.22849452 5.38199028,4.35800331 5.38240404,4.49840405 C5.3828178,4.63880478 5.310313,4.76876725 5.19220149,4.83933586 L2.8856996,6.20883707 C2.8290179,6.24603445 2.76330393,6.26611134 2.69605388,6.26679407 C2.62771626,6.26742241 2.56045931,6.24923372 2.50128261,6.21410437 L2.50128261,6.21410437 Z" id="路径"></path>
                    <path d="M7.1142864,8.94625928 L4.80778451,7.57675808 C4.68793701,7.50665586 4.61366404,7.3760964 4.61301323,7.23438278 L4.61301323,6.36527625 C4.6144108,6.14769471 4.78570417,5.97166405 4.99743021,5.97022782 C5.20915625,5.97166405 5.38044962,6.14769471 5.38184719,6.36527625 L5.38184719,7.00788834 L7.30393211,8.15089512 L9.22601702,7.00788834 L9.22601702,4.7271421 L7.30393211,3.58413534 L5.19220149,4.83722894 C5.01152287,4.93172262 4.79048464,4.86487678 4.68841074,4.68487377 C4.58633684,4.50487076 4.63871209,4.27428656 4.80778451,4.15932584 L7.1142864,2.78982463 C7.23376568,2.72135936 7.37922411,2.72135936 7.49870338,2.78982463 L9.80520528,4.15932584 C9.92505277,4.22942806 9.99932574,4.35998752 10,4.50170114 L10,7.24070355 C10.0015214,7.38302445 9.92664484,7.51464498 9.80520528,7.58307885 L7.49870338,8.95258005 C7.44027755,8.9842608 7.37511562,9.00054935 7.30905767,9 C7.24062527,9.00031105 7.17336199,8.98175684 7.1142864,8.94625928 L7.1142864,8.94625928 Z" id="路径"></path>
                </g>
            </g>
        </g>
    </g>
</svg>