<?xml version="1.0" encoding="UTF-8"?>
<svg width="20px" height="20px" viewBox="0 0 20 20" version="1.1" xmlns="http://www.w3.org/2000/svg" xmlns:xlink="http://www.w3.org/1999/xlink">
    <title>详情_eth</title>
    <g id="社区2" stroke="none" stroke-width="1" fill="none" fill-rule="evenodd">
        <g id="公链" transform="translate(-40.000000, -21.000000)">
            <g id="详情_eth" transform="translate(40.000000, 21.000000)">
                <rect id="矩形备份" fill-opacity="0.1" fill="#FFFFFF" x="0" y="0" width="20" height="20" rx="10"></rect>
                <g id="编组" transform="translate(5.500000, 3.000000)" fill="#48A3FF" fill-rule="nonzero">
                    <polygon id="路径" points="9 6.72547812 4.5 8.96092424 0 6.72547812 0.0208059571 6.69188588 4.5 0 8.97481384 6.68817511"></polygon>
                    <polygon id="路径" points="8.99583881 7.46685095 8.97481384 7.49302165 4.5 13 0.0208059571 7.48931088 0.00416119141 7.46685095 0.0208059571 7.47798326 4.5 9.8515091 8.97481384 7.47798326"></polygon>
                    <polygon id="路径" points="9 6.72547812 4.5 8.96092424 0 6.72547812 0.0208059571 6.69188588 4.5 4.88103 8.97481384 6.68817511"></polygon>
                    <polygon id="路径" opacity="0.8" points="9 6.72547812 4.5 8.96092424 4.5 0 8.97481384 6.68817511"></polygon>
                    <polygon id="路径" points="8.99583881 7.46685095 8.97481384 7.49302165 4.5 13 4.5 9.8515091 8.97481384 7.47798326"></polygon>
                </g>
            </g>
        </g>
    </g>
</svg>