<?xml version="1.0" encoding="UTF-8"?>
<svg width="20px" height="20px" viewBox="0 0 20 20" version="1.1" xmlns="http://www.w3.org/2000/svg" xmlns:xlink="http://www.w3.org/1999/xlink">
    <title>详情_optimism</title>
    <g id="社区2" stroke="none" stroke-width="1" fill="none" fill-rule="evenodd">
        <g id="公链" transform="translate(-101.000000, -21.000000)">
            <g id="详情_optimism" transform="translate(101.000000, 21.000000)">
                <rect id="矩形备份" fill-opacity="0.1" fill="#FFFFFF" x="0" y="0" width="20" height="20" rx="10"></rect>
                <g id="编组-2" transform="translate(4.000000, 6.000000)" fill="#FF001E">
                    <path d="M3.76422723,0.0581762982 L4.36282591,0.175690447 C5.41583234,0.382411842 6.10188191,1.40362302 5.89516052,2.45662945 C5.88746178,2.49584564 5.87855495,2.53481497 5.86845276,2.57348184 L5.20394627,5.1169276 C4.85183199,6.46467001 3.47382588,7.27178608 2.12608347,6.9196718 C2.1064844,6.9145513 2.08694772,6.90919487 2.0674777,6.90360369 L1.26701785,6.67373649 C0.331988807,6.4052252 -0.216662401,5.43829859 0.0324130193,4.49790556 L0.700736795,1.97462558 C1.05732125,0.628328399 2.39759328,-0.210115013 3.76422723,0.0581762982 Z M3.29870851,1.42799754 C2.78984236,1.37088647 2.31870953,1.70348249 2.2021624,2.20210378 L1.64873738,4.56981113 L1.64249805,4.59902743 C1.56093649,5.02044969 1.83644801,5.42819864 2.25787026,5.5097602 L2.49830416,5.5562935 C3.03346585,5.65986806 3.55431178,5.3202674 3.67541345,4.78879763 L4.20016596,2.48585594 C4.2072761,2.45465221 4.21262851,2.42307387 4.21619792,2.39127001 C4.2688595,1.92204932 3.93117162,1.49898015 3.46195094,1.44631857 Z" id="形状结合"></path>
                    <path d="M10.1507158,0.142768852 C11.1713696,0.142768852 11.998773,0.970172246 11.998773,1.99082606 C11.998773,2.100397 11.9890284,2.20975086 11.9696543,2.31759536 L11.9122667,2.63703909 C11.7193458,3.71091997 10.7849376,4.49242187 9.69386536,4.49242187 L8.11288218,4.49176885 L7.72540945,6.73235446 C7.70606579,6.84412428 7.60909252,6.92575625 7.49566117,6.92575625 L6.36370328,6.92575625 C6.23493057,6.92575625 6.13053966,6.82136534 6.13053966,6.69259263 C6.13053966,6.67958201 6.13162866,6.66659422 6.13379524,6.65376526 L7.20056663,0.337105093 C7.21951534,0.224904343 7.31668512,0.142768852 7.43047467,0.142768852 L10.1507158,0.142768852 Z M9.63901246,1.37943491 L8.65088218,1.37876885 L8.32688218,3.25476885 L9.19171286,3.25575582 C9.75716397,3.25575582 10.2486884,2.86763293 10.3798129,2.31759536 C10.3936049,2.25974101 10.4005721,2.20047017 10.4005721,2.14099458 C10.4005721,1.72039679 10.0596103,1.37943491 9.63901246,1.37943491 Z" id="形状结合"></path>
                </g>
            </g>
        </g>
    </g>
</svg>